<mxfile host="app.diagrams.net" agent="Mozilla/5.0 (X11; Linux x86_64) AppleWebKit/537.36 (KHTML, like Gecko) Chrome/101.0.0.0 Safari/537.36" version="26.2.4">
  <diagram id="C5RBs43oDa-KdzZeNtuy" name="Page-1">
    <mxGraphModel dx="2183" dy="719" grid="1" gridSize="10" guides="1" tooltips="1" connect="1" arrows="1" fold="1" page="1" pageScale="1" pageWidth="827" pageHeight="1169" math="0" shadow="0">
      <root>
        <mxCell id="WIyWlLk6GJQsqaUBKTNV-0" />
        <mxCell id="WIyWlLk6GJQsqaUBKTNV-1" parent="WIyWlLk6GJQsqaUBKTNV-0" />
        <mxCell id="9Zp95_j8wEqHx6sy2hP5-68" value="" style="rounded=1;whiteSpace=wrap;html=1;fillColor=none;gradientColor=none;" vertex="1" parent="WIyWlLk6GJQsqaUBKTNV-1">
          <mxGeometry x="720" y="40" width="600" height="370" as="geometry" />
        </mxCell>
        <mxCell id="9Zp95_j8wEqHx6sy2hP5-55" value="" style="rounded=1;whiteSpace=wrap;html=1;fillColor=none;" vertex="1" parent="WIyWlLk6GJQsqaUBKTNV-1">
          <mxGeometry x="-160" y="415" width="440" height="375" as="geometry" />
        </mxCell>
        <mxCell id="9Zp95_j8wEqHx6sy2hP5-53" value="" style="rounded=1;whiteSpace=wrap;html=1;fillColor=none;" vertex="1" parent="WIyWlLk6GJQsqaUBKTNV-1">
          <mxGeometry x="336" y="420" width="620" height="680" as="geometry" />
        </mxCell>
        <mxCell id="9Zp95_j8wEqHx6sy2hP5-50" value="" style="rounded=1;whiteSpace=wrap;html=1;fillColor=none;gradientColor=none;" vertex="1" parent="WIyWlLk6GJQsqaUBKTNV-1">
          <mxGeometry x="80" y="40" width="590" height="342.56" as="geometry" />
        </mxCell>
        <mxCell id="9Zp95_j8wEqHx6sy2hP5-0" value="Asset" style="swimlane;fontStyle=1;align=center;verticalAlign=top;childLayout=stackLayout;horizontal=1;startSize=30.11764705882353;horizontalStack=0;resizeParent=1;resizeParentMax=0;resizeLast=0;collapsible=0;marginBottom=0;" vertex="1" parent="WIyWlLk6GJQsqaUBKTNV-1">
          <mxGeometry x="-50" y="457" width="240" height="255.11764705882354" as="geometry" />
        </mxCell>
        <mxCell id="9Zp95_j8wEqHx6sy2hP5-1" value="+id" style="text;strokeColor=none;fillColor=none;align=left;verticalAlign=top;spacingLeft=4;spacingRight=4;overflow=hidden;rotatable=0;points=[[0,0.5],[1,0.5]];portConstraint=eastwest;" vertex="1" parent="9Zp95_j8wEqHx6sy2hP5-0">
          <mxGeometry y="30.11764705882353" width="240" height="30" as="geometry" />
        </mxCell>
        <mxCell id="9Zp95_j8wEqHx6sy2hP5-2" value="+customerId" style="text;strokeColor=none;fillColor=none;align=left;verticalAlign=top;spacingLeft=4;spacingRight=4;overflow=hidden;rotatable=0;points=[[0,0.5],[1,0.5]];portConstraint=eastwest;" vertex="1" parent="9Zp95_j8wEqHx6sy2hP5-0">
          <mxGeometry y="60.11764705882353" width="240" height="30" as="geometry" />
        </mxCell>
        <mxCell id="9Zp95_j8wEqHx6sy2hP5-3" value="+assetName" style="text;strokeColor=none;fillColor=none;align=left;verticalAlign=top;spacingLeft=4;spacingRight=4;overflow=hidden;rotatable=0;points=[[0,0.5],[1,0.5]];portConstraint=eastwest;" vertex="1" parent="9Zp95_j8wEqHx6sy2hP5-0">
          <mxGeometry y="90.11764705882354" width="240" height="30" as="geometry" />
        </mxCell>
        <mxCell id="9Zp95_j8wEqHx6sy2hP5-4" value="+size" style="text;strokeColor=none;fillColor=none;align=left;verticalAlign=top;spacingLeft=4;spacingRight=4;overflow=hidden;rotatable=0;points=[[0,0.5],[1,0.5]];portConstraint=eastwest;" vertex="1" parent="9Zp95_j8wEqHx6sy2hP5-0">
          <mxGeometry y="120.11764705882354" width="240" height="30" as="geometry" />
        </mxCell>
        <mxCell id="9Zp95_j8wEqHx6sy2hP5-5" value="+usableSize" style="text;strokeColor=none;fillColor=none;align=left;verticalAlign=top;spacingLeft=4;spacingRight=4;overflow=hidden;rotatable=0;points=[[0,0.5],[1,0.5]];portConstraint=eastwest;" vertex="1" parent="9Zp95_j8wEqHx6sy2hP5-0">
          <mxGeometry y="150.11764705882354" width="240" height="30" as="geometry" />
        </mxCell>
        <mxCell id="9Zp95_j8wEqHx6sy2hP5-6" value="+createdAt" style="text;strokeColor=none;fillColor=none;align=left;verticalAlign=top;spacingLeft=4;spacingRight=4;overflow=hidden;rotatable=0;points=[[0,0.5],[1,0.5]];portConstraint=eastwest;" vertex="1" parent="9Zp95_j8wEqHx6sy2hP5-0">
          <mxGeometry y="180.11764705882354" width="240" height="30" as="geometry" />
        </mxCell>
        <mxCell id="9Zp95_j8wEqHx6sy2hP5-7" value="+updatedAt" style="text;strokeColor=none;fillColor=none;align=left;verticalAlign=top;spacingLeft=4;spacingRight=4;overflow=hidden;rotatable=0;points=[[0,0.5],[1,0.5]];portConstraint=eastwest;" vertex="1" parent="9Zp95_j8wEqHx6sy2hP5-0">
          <mxGeometry y="210.11764705882354" width="240" height="30" as="geometry" />
        </mxCell>
        <mxCell id="9Zp95_j8wEqHx6sy2hP5-8" style="line;strokeWidth=1;fillColor=none;align=left;verticalAlign=middle;spacingTop=-1;spacingLeft=3;spacingRight=3;rotatable=0;labelPosition=right;points=[];portConstraint=eastwest;strokeColor=inherit;" vertex="1" parent="9Zp95_j8wEqHx6sy2hP5-0">
          <mxGeometry y="240.11764705882354" width="240" height="15" as="geometry" />
        </mxCell>
        <mxCell id="9Zp95_j8wEqHx6sy2hP5-9" value="Order" style="swimlane;fontStyle=1;align=center;verticalAlign=top;childLayout=stackLayout;horizontal=1;startSize=28.952380952380953;horizontalStack=0;resizeParent=1;resizeParentMax=0;resizeLast=0;collapsible=0;marginBottom=0;" vertex="1" parent="WIyWlLk6GJQsqaUBKTNV-1">
          <mxGeometry x="523" y="490.43" width="246" height="303.95238095238096" as="geometry" />
        </mxCell>
        <mxCell id="9Zp95_j8wEqHx6sy2hP5-10" value="+id" style="text;strokeColor=none;fillColor=none;align=left;verticalAlign=top;spacingLeft=4;spacingRight=4;overflow=hidden;rotatable=0;points=[[0,0.5],[1,0.5]];portConstraint=eastwest;" vertex="1" parent="9Zp95_j8wEqHx6sy2hP5-9">
          <mxGeometry y="28.952380952380953" width="246" height="29" as="geometry" />
        </mxCell>
        <mxCell id="9Zp95_j8wEqHx6sy2hP5-11" value="+customerId" style="text;strokeColor=none;fillColor=none;align=left;verticalAlign=top;spacingLeft=4;spacingRight=4;overflow=hidden;rotatable=0;points=[[0,0.5],[1,0.5]];portConstraint=eastwest;" vertex="1" parent="9Zp95_j8wEqHx6sy2hP5-9">
          <mxGeometry y="57.95238095238095" width="246" height="29" as="geometry" />
        </mxCell>
        <mxCell id="9Zp95_j8wEqHx6sy2hP5-12" value="+assetName" style="text;strokeColor=none;fillColor=none;align=left;verticalAlign=top;spacingLeft=4;spacingRight=4;overflow=hidden;rotatable=0;points=[[0,0.5],[1,0.5]];portConstraint=eastwest;" vertex="1" parent="9Zp95_j8wEqHx6sy2hP5-9">
          <mxGeometry y="86.95238095238095" width="246" height="29" as="geometry" />
        </mxCell>
        <mxCell id="9Zp95_j8wEqHx6sy2hP5-13" value="+orderSide" style="text;strokeColor=none;fillColor=none;align=left;verticalAlign=top;spacingLeft=4;spacingRight=4;overflow=hidden;rotatable=0;points=[[0,0.5],[1,0.5]];portConstraint=eastwest;" vertex="1" parent="9Zp95_j8wEqHx6sy2hP5-9">
          <mxGeometry y="115.95238095238095" width="246" height="29" as="geometry" />
        </mxCell>
        <mxCell id="9Zp95_j8wEqHx6sy2hP5-14" value="+size" style="text;strokeColor=none;fillColor=none;align=left;verticalAlign=top;spacingLeft=4;spacingRight=4;overflow=hidden;rotatable=0;points=[[0,0.5],[1,0.5]];portConstraint=eastwest;" vertex="1" parent="9Zp95_j8wEqHx6sy2hP5-9">
          <mxGeometry y="144.95238095238096" width="246" height="29" as="geometry" />
        </mxCell>
        <mxCell id="9Zp95_j8wEqHx6sy2hP5-15" value="+price" style="text;strokeColor=none;fillColor=none;align=left;verticalAlign=top;spacingLeft=4;spacingRight=4;overflow=hidden;rotatable=0;points=[[0,0.5],[1,0.5]];portConstraint=eastwest;" vertex="1" parent="9Zp95_j8wEqHx6sy2hP5-9">
          <mxGeometry y="173.95238095238096" width="246" height="29" as="geometry" />
        </mxCell>
        <mxCell id="9Zp95_j8wEqHx6sy2hP5-16" value="+status" style="text;strokeColor=none;fillColor=none;align=left;verticalAlign=top;spacingLeft=4;spacingRight=4;overflow=hidden;rotatable=0;points=[[0,0.5],[1,0.5]];portConstraint=eastwest;" vertex="1" parent="9Zp95_j8wEqHx6sy2hP5-9">
          <mxGeometry y="202.95238095238096" width="246" height="29" as="geometry" />
        </mxCell>
        <mxCell id="9Zp95_j8wEqHx6sy2hP5-17" value="+createDate" style="text;strokeColor=none;fillColor=none;align=left;verticalAlign=top;spacingLeft=4;spacingRight=4;overflow=hidden;rotatable=0;points=[[0,0.5],[1,0.5]];portConstraint=eastwest;" vertex="1" parent="9Zp95_j8wEqHx6sy2hP5-9">
          <mxGeometry y="231.95238095238096" width="246" height="29" as="geometry" />
        </mxCell>
        <mxCell id="9Zp95_j8wEqHx6sy2hP5-18" value="+updatedAt" style="text;strokeColor=none;fillColor=none;align=left;verticalAlign=top;spacingLeft=4;spacingRight=4;overflow=hidden;rotatable=0;points=[[0,0.5],[1,0.5]];portConstraint=eastwest;" vertex="1" parent="9Zp95_j8wEqHx6sy2hP5-9">
          <mxGeometry y="260.95238095238096" width="246" height="29" as="geometry" />
        </mxCell>
        <mxCell id="9Zp95_j8wEqHx6sy2hP5-19" style="line;strokeWidth=1;fillColor=none;align=left;verticalAlign=middle;spacingTop=-1;spacingLeft=3;spacingRight=3;rotatable=0;labelPosition=right;points=[];portConstraint=eastwest;strokeColor=inherit;" vertex="1" parent="9Zp95_j8wEqHx6sy2hP5-9">
          <mxGeometry y="289.95238095238096" width="246" height="14" as="geometry" />
        </mxCell>
        <mxCell id="9Zp95_j8wEqHx6sy2hP5-20" value="Customer" style="swimlane;fontStyle=1;align=center;verticalAlign=top;childLayout=stackLayout;horizontal=1;startSize=30.11764705882353;horizontalStack=0;resizeParent=1;resizeParentMax=0;resizeLast=0;collapsible=0;marginBottom=0;" vertex="1" parent="WIyWlLk6GJQsqaUBKTNV-1">
          <mxGeometry x="239" y="90" width="256" height="225.23764705882354" as="geometry" />
        </mxCell>
        <mxCell id="9Zp95_j8wEqHx6sy2hP5-21" value="+id" style="text;strokeColor=none;fillColor=none;align=left;verticalAlign=top;spacingLeft=4;spacingRight=4;overflow=hidden;rotatable=0;points=[[0,0.5],[1,0.5]];portConstraint=eastwest;" vertex="1" parent="9Zp95_j8wEqHx6sy2hP5-20">
          <mxGeometry y="30.11764705882353" width="256" height="30.12" as="geometry" />
        </mxCell>
        <mxCell id="9Zp95_j8wEqHx6sy2hP5-22" value="+username" style="text;strokeColor=none;fillColor=none;align=left;verticalAlign=top;spacingLeft=4;spacingRight=4;overflow=hidden;rotatable=0;points=[[0,0.5],[1,0.5]];portConstraint=eastwest;" vertex="1" parent="9Zp95_j8wEqHx6sy2hP5-20">
          <mxGeometry y="60.237647058823526" width="256" height="30" as="geometry" />
        </mxCell>
        <mxCell id="9Zp95_j8wEqHx6sy2hP5-23" value="+password" style="text;strokeColor=none;fillColor=none;align=left;verticalAlign=top;spacingLeft=4;spacingRight=4;overflow=hidden;rotatable=0;points=[[0,0.5],[1,0.5]];portConstraint=eastwest;" vertex="1" parent="9Zp95_j8wEqHx6sy2hP5-20">
          <mxGeometry y="90.23764705882353" width="256" height="30" as="geometry" />
        </mxCell>
        <mxCell id="9Zp95_j8wEqHx6sy2hP5-24" value="+email" style="text;strokeColor=none;fillColor=none;align=left;verticalAlign=top;spacingLeft=4;spacingRight=4;overflow=hidden;rotatable=0;points=[[0,0.5],[1,0.5]];portConstraint=eastwest;" vertex="1" parent="9Zp95_j8wEqHx6sy2hP5-20">
          <mxGeometry y="120.23764705882353" width="256" height="30" as="geometry" />
        </mxCell>
        <mxCell id="9Zp95_j8wEqHx6sy2hP5-26" value="+createdAt" style="text;strokeColor=none;fillColor=none;align=left;verticalAlign=top;spacingLeft=4;spacingRight=4;overflow=hidden;rotatable=0;points=[[0,0.5],[1,0.5]];portConstraint=eastwest;" vertex="1" parent="9Zp95_j8wEqHx6sy2hP5-20">
          <mxGeometry y="150.23764705882354" width="256" height="30" as="geometry" />
        </mxCell>
        <mxCell id="9Zp95_j8wEqHx6sy2hP5-27" value="+updatedAt" style="text;strokeColor=none;fillColor=none;align=left;verticalAlign=top;spacingLeft=4;spacingRight=4;overflow=hidden;rotatable=0;points=[[0,0.5],[1,0.5]];portConstraint=eastwest;" vertex="1" parent="9Zp95_j8wEqHx6sy2hP5-20">
          <mxGeometry y="180.23764705882354" width="256" height="30" as="geometry" />
        </mxCell>
        <mxCell id="9Zp95_j8wEqHx6sy2hP5-28" style="line;strokeWidth=1;fillColor=none;align=left;verticalAlign=middle;spacingTop=-1;spacingLeft=3;spacingRight=3;rotatable=0;labelPosition=right;points=[];portConstraint=eastwest;strokeColor=inherit;" vertex="1" parent="9Zp95_j8wEqHx6sy2hP5-20">
          <mxGeometry y="210.23764705882354" width="256" height="15" as="geometry" />
        </mxCell>
        <mxCell id="9Zp95_j8wEqHx6sy2hP5-29" value="&lt;&lt;enumeration&gt;&gt;&#xa;OrderSide" style="swimlane;fontStyle=1;align=center;verticalAlign=top;childLayout=stackLayout;horizontal=1;startSize=60;horizontalStack=0;resizeParent=1;resizeParentMax=0;resizeLast=0;collapsible=0;marginBottom=0;" vertex="1" parent="WIyWlLk6GJQsqaUBKTNV-1">
          <mxGeometry x="481" y="886.4300000000001" width="131" height="160" as="geometry" />
        </mxCell>
        <mxCell id="9Zp95_j8wEqHx6sy2hP5-30" value="BUY" style="text;strokeColor=none;fillColor=none;align=left;verticalAlign=top;spacingLeft=4;spacingRight=4;overflow=hidden;rotatable=0;points=[[0,0.5],[1,0.5]];portConstraint=eastwest;" vertex="1" parent="9Zp95_j8wEqHx6sy2hP5-29">
          <mxGeometry y="60" width="131" height="40" as="geometry" />
        </mxCell>
        <mxCell id="9Zp95_j8wEqHx6sy2hP5-31" value="SELL" style="text;strokeColor=none;fillColor=none;align=left;verticalAlign=top;spacingLeft=4;spacingRight=4;overflow=hidden;rotatable=0;points=[[0,0.5],[1,0.5]];portConstraint=eastwest;" vertex="1" parent="9Zp95_j8wEqHx6sy2hP5-29">
          <mxGeometry y="100" width="131" height="40" as="geometry" />
        </mxCell>
        <mxCell id="9Zp95_j8wEqHx6sy2hP5-32" style="line;strokeWidth=1;fillColor=none;align=left;verticalAlign=middle;spacingTop=-1;spacingLeft=3;spacingRight=3;rotatable=0;labelPosition=right;points=[];portConstraint=eastwest;strokeColor=inherit;" vertex="1" parent="9Zp95_j8wEqHx6sy2hP5-29">
          <mxGeometry y="140" width="131" height="20" as="geometry" />
        </mxCell>
        <mxCell id="9Zp95_j8wEqHx6sy2hP5-33" value="&lt;&lt;enumeration&gt;&gt;&#xa;OrderStatus" style="swimlane;fontStyle=1;align=center;verticalAlign=top;childLayout=stackLayout;horizontal=1;startSize=55.199999999999996;horizontalStack=0;resizeParent=1;resizeParentMax=0;resizeLast=0;collapsible=0;marginBottom=0;" vertex="1" parent="WIyWlLk6GJQsqaUBKTNV-1">
          <mxGeometry x="662" y="874.4300000000001" width="165" height="184.2" as="geometry" />
        </mxCell>
        <mxCell id="9Zp95_j8wEqHx6sy2hP5-34" value="PENDING" style="text;strokeColor=none;fillColor=none;align=left;verticalAlign=top;spacingLeft=4;spacingRight=4;overflow=hidden;rotatable=0;points=[[0,0.5],[1,0.5]];portConstraint=eastwest;" vertex="1" parent="9Zp95_j8wEqHx6sy2hP5-33">
          <mxGeometry y="55.199999999999996" width="165" height="37" as="geometry" />
        </mxCell>
        <mxCell id="9Zp95_j8wEqHx6sy2hP5-35" value="MATCHED" style="text;strokeColor=none;fillColor=none;align=left;verticalAlign=top;spacingLeft=4;spacingRight=4;overflow=hidden;rotatable=0;points=[[0,0.5],[1,0.5]];portConstraint=eastwest;" vertex="1" parent="9Zp95_j8wEqHx6sy2hP5-33">
          <mxGeometry y="92.19999999999999" width="165" height="37" as="geometry" />
        </mxCell>
        <mxCell id="9Zp95_j8wEqHx6sy2hP5-36" value="CANCELED" style="text;strokeColor=none;fillColor=none;align=left;verticalAlign=top;spacingLeft=4;spacingRight=4;overflow=hidden;rotatable=0;points=[[0,0.5],[1,0.5]];portConstraint=eastwest;" vertex="1" parent="9Zp95_j8wEqHx6sy2hP5-33">
          <mxGeometry y="129.2" width="165" height="37" as="geometry" />
        </mxCell>
        <mxCell id="9Zp95_j8wEqHx6sy2hP5-37" style="line;strokeWidth=1;fillColor=none;align=left;verticalAlign=middle;spacingTop=-1;spacingLeft=3;spacingRight=3;rotatable=0;labelPosition=right;points=[];portConstraint=eastwest;strokeColor=inherit;" vertex="1" parent="9Zp95_j8wEqHx6sy2hP5-33">
          <mxGeometry y="166.2" width="165" height="18" as="geometry" />
        </mxCell>
        <mxCell id="9Zp95_j8wEqHx6sy2hP5-38" value="has" style="curved=1;startArrow=none;endArrow=none;exitX=0.05;exitY=1;entryX=0.5;entryY=0;rounded=0;" edge="1" parent="WIyWlLk6GJQsqaUBKTNV-1" source="9Zp95_j8wEqHx6sy2hP5-20" target="9Zp95_j8wEqHx6sy2hP5-0">
          <mxGeometry relative="1" as="geometry">
            <Array as="points">
              <mxPoint x="220" y="390" />
            </Array>
          </mxGeometry>
        </mxCell>
        <mxCell id="9Zp95_j8wEqHx6sy2hP5-39" value="1" style="edgeLabel;resizable=0;labelBackgroundColor=none;fontSize=12;align=right;verticalAlign=top;" vertex="1" parent="9Zp95_j8wEqHx6sy2hP5-38">
          <mxGeometry x="-1" relative="1" as="geometry" />
        </mxCell>
        <mxCell id="9Zp95_j8wEqHx6sy2hP5-40" value="*" style="edgeLabel;resizable=0;labelBackgroundColor=none;fontSize=12;align=left;verticalAlign=bottom;" vertex="1" parent="9Zp95_j8wEqHx6sy2hP5-38">
          <mxGeometry x="1" relative="1" as="geometry" />
        </mxCell>
        <mxCell id="9Zp95_j8wEqHx6sy2hP5-41" value="places" style="curved=1;startArrow=none;endArrow=none;exitX=0.95;exitY=1;entryX=0.5;entryY=0;rounded=0;" edge="1" parent="WIyWlLk6GJQsqaUBKTNV-1" source="9Zp95_j8wEqHx6sy2hP5-20" target="9Zp95_j8wEqHx6sy2hP5-9">
          <mxGeometry relative="1" as="geometry">
            <Array as="points">
              <mxPoint x="513" y="390" />
            </Array>
          </mxGeometry>
        </mxCell>
        <mxCell id="9Zp95_j8wEqHx6sy2hP5-42" value="1" style="edgeLabel;resizable=0;labelBackgroundColor=none;fontSize=12;align=right;verticalAlign=top;" vertex="1" parent="9Zp95_j8wEqHx6sy2hP5-41">
          <mxGeometry x="-1" relative="1" as="geometry" />
        </mxCell>
        <mxCell id="9Zp95_j8wEqHx6sy2hP5-43" value="*" style="edgeLabel;resizable=0;labelBackgroundColor=none;fontSize=12;align=left;verticalAlign=bottom;" vertex="1" parent="9Zp95_j8wEqHx6sy2hP5-41">
          <mxGeometry x="1" relative="1" as="geometry" />
        </mxCell>
        <mxCell id="9Zp95_j8wEqHx6sy2hP5-44" value="has" style="curved=1;startArrow=none;endArrow=none;exitX=0.17;exitY=1;entryX=0.5;entryY=0;rounded=0;" edge="1" parent="WIyWlLk6GJQsqaUBKTNV-1" source="9Zp95_j8wEqHx6sy2hP5-9" target="9Zp95_j8wEqHx6sy2hP5-29">
          <mxGeometry relative="1" as="geometry">
            <Array as="points">
              <mxPoint x="547" y="838.4300000000001" />
            </Array>
          </mxGeometry>
        </mxCell>
        <mxCell id="9Zp95_j8wEqHx6sy2hP5-45" value="*" style="edgeLabel;resizable=0;labelBackgroundColor=none;fontSize=12;align=right;verticalAlign=top;" vertex="1" parent="9Zp95_j8wEqHx6sy2hP5-44">
          <mxGeometry x="-1" relative="1" as="geometry" />
        </mxCell>
        <mxCell id="9Zp95_j8wEqHx6sy2hP5-46" value="1" style="edgeLabel;resizable=0;labelBackgroundColor=none;fontSize=12;align=left;verticalAlign=bottom;" vertex="1" parent="9Zp95_j8wEqHx6sy2hP5-44">
          <mxGeometry x="1" relative="1" as="geometry">
            <mxPoint x="-26" y="-7" as="offset" />
          </mxGeometry>
        </mxCell>
        <mxCell id="9Zp95_j8wEqHx6sy2hP5-47" value="has" style="curved=1;startArrow=none;endArrow=none;exitX=0.83;exitY=1;entryX=0.5;entryY=0;rounded=0;" edge="1" parent="WIyWlLk6GJQsqaUBKTNV-1" source="9Zp95_j8wEqHx6sy2hP5-9" target="9Zp95_j8wEqHx6sy2hP5-33">
          <mxGeometry relative="1" as="geometry">
            <Array as="points">
              <mxPoint x="745" y="838.4300000000001" />
            </Array>
          </mxGeometry>
        </mxCell>
        <mxCell id="9Zp95_j8wEqHx6sy2hP5-48" value="*" style="edgeLabel;resizable=0;labelBackgroundColor=none;fontSize=12;align=right;verticalAlign=top;" vertex="1" parent="9Zp95_j8wEqHx6sy2hP5-47">
          <mxGeometry x="-1" relative="1" as="geometry" />
        </mxCell>
        <mxCell id="9Zp95_j8wEqHx6sy2hP5-49" value="1" style="edgeLabel;resizable=0;labelBackgroundColor=none;fontSize=12;align=left;verticalAlign=bottom;" vertex="1" parent="9Zp95_j8wEqHx6sy2hP5-47">
          <mxGeometry x="1" relative="1" as="geometry" />
        </mxCell>
        <mxCell id="9Zp95_j8wEqHx6sy2hP5-52" value="&lt;b&gt;&lt;font style=&quot;font-size: 17px;&quot;&gt;Customer Domain&lt;/font&gt;&lt;/b&gt;" style="text;html=1;align=center;verticalAlign=middle;whiteSpace=wrap;rounded=0;" vertex="1" parent="WIyWlLk6GJQsqaUBKTNV-1">
          <mxGeometry x="307" y="50" width="120" height="30" as="geometry" />
        </mxCell>
        <mxCell id="9Zp95_j8wEqHx6sy2hP5-54" value="&lt;b&gt;&lt;font style=&quot;font-size: 17px;&quot;&gt;Order Domain&lt;/font&gt;&lt;/b&gt;" style="text;html=1;align=center;verticalAlign=middle;whiteSpace=wrap;rounded=0;" vertex="1" parent="WIyWlLk6GJQsqaUBKTNV-1">
          <mxGeometry x="800" y="430" width="110" height="30" as="geometry" />
        </mxCell>
        <mxCell id="9Zp95_j8wEqHx6sy2hP5-56" value="&lt;b&gt;&lt;font style=&quot;font-size: 17px;&quot;&gt;Asset Domain&lt;/font&gt;&lt;/b&gt;" style="text;html=1;align=center;verticalAlign=middle;whiteSpace=wrap;rounded=0;" vertex="1" parent="WIyWlLk6GJQsqaUBKTNV-1">
          <mxGeometry x="-130" y="430" width="60" height="30" as="geometry" />
        </mxCell>
        <mxCell id="9Zp95_j8wEqHx6sy2hP5-59" value="User" style="swimlane;fontStyle=1;align=center;verticalAlign=top;childLayout=stackLayout;horizontal=1;startSize=30.11764705882353;horizontalStack=0;resizeParent=1;resizeParentMax=0;resizeLast=0;collapsible=0;marginBottom=0;" vertex="1" parent="WIyWlLk6GJQsqaUBKTNV-1">
          <mxGeometry x="840" y="90" width="256" height="255.23764705882354" as="geometry" />
        </mxCell>
        <mxCell id="9Zp95_j8wEqHx6sy2hP5-60" value="+id" style="text;strokeColor=none;fillColor=none;align=left;verticalAlign=top;spacingLeft=4;spacingRight=4;overflow=hidden;rotatable=0;points=[[0,0.5],[1,0.5]];portConstraint=eastwest;" vertex="1" parent="9Zp95_j8wEqHx6sy2hP5-59">
          <mxGeometry y="30.11764705882353" width="256" height="30.12" as="geometry" />
        </mxCell>
        <mxCell id="9Zp95_j8wEqHx6sy2hP5-61" value="+username" style="text;strokeColor=none;fillColor=none;align=left;verticalAlign=top;spacingLeft=4;spacingRight=4;overflow=hidden;rotatable=0;points=[[0,0.5],[1,0.5]];portConstraint=eastwest;" vertex="1" parent="9Zp95_j8wEqHx6sy2hP5-59">
          <mxGeometry y="60.237647058823526" width="256" height="30" as="geometry" />
        </mxCell>
        <mxCell id="9Zp95_j8wEqHx6sy2hP5-62" value="+password" style="text;strokeColor=none;fillColor=none;align=left;verticalAlign=top;spacingLeft=4;spacingRight=4;overflow=hidden;rotatable=0;points=[[0,0.5],[1,0.5]];portConstraint=eastwest;" vertex="1" parent="9Zp95_j8wEqHx6sy2hP5-59">
          <mxGeometry y="90.23764705882353" width="256" height="30" as="geometry" />
        </mxCell>
        <mxCell id="9Zp95_j8wEqHx6sy2hP5-63" value="+email" style="text;strokeColor=none;fillColor=none;align=left;verticalAlign=top;spacingLeft=4;spacingRight=4;overflow=hidden;rotatable=0;points=[[0,0.5],[1,0.5]];portConstraint=eastwest;" vertex="1" parent="9Zp95_j8wEqHx6sy2hP5-59">
          <mxGeometry y="120.23764705882353" width="256" height="30" as="geometry" />
        </mxCell>
        <mxCell id="9Zp95_j8wEqHx6sy2hP5-64" value="+userType" style="text;strokeColor=none;fillColor=none;align=left;verticalAlign=top;spacingLeft=4;spacingRight=4;overflow=hidden;rotatable=0;points=[[0,0.5],[1,0.5]];portConstraint=eastwest;" vertex="1" parent="9Zp95_j8wEqHx6sy2hP5-59">
          <mxGeometry y="150.23764705882354" width="256" height="30" as="geometry" />
        </mxCell>
        <mxCell id="9Zp95_j8wEqHx6sy2hP5-65" value="+createdAt" style="text;strokeColor=none;fillColor=none;align=left;verticalAlign=top;spacingLeft=4;spacingRight=4;overflow=hidden;rotatable=0;points=[[0,0.5],[1,0.5]];portConstraint=eastwest;" vertex="1" parent="9Zp95_j8wEqHx6sy2hP5-59">
          <mxGeometry y="180.23764705882354" width="256" height="30" as="geometry" />
        </mxCell>
        <mxCell id="9Zp95_j8wEqHx6sy2hP5-66" value="+updatedAt" style="text;strokeColor=none;fillColor=none;align=left;verticalAlign=top;spacingLeft=4;spacingRight=4;overflow=hidden;rotatable=0;points=[[0,0.5],[1,0.5]];portConstraint=eastwest;" vertex="1" parent="9Zp95_j8wEqHx6sy2hP5-59">
          <mxGeometry y="210.23764705882354" width="256" height="30" as="geometry" />
        </mxCell>
        <mxCell id="9Zp95_j8wEqHx6sy2hP5-67" style="line;strokeWidth=1;fillColor=none;align=left;verticalAlign=middle;spacingTop=-1;spacingLeft=3;spacingRight=3;rotatable=0;labelPosition=right;points=[];portConstraint=eastwest;strokeColor=inherit;" vertex="1" parent="9Zp95_j8wEqHx6sy2hP5-59">
          <mxGeometry y="240.23764705882354" width="256" height="15" as="geometry" />
        </mxCell>
        <mxCell id="9Zp95_j8wEqHx6sy2hP5-69" value="&lt;b&gt;&lt;font style=&quot;font-size: 17px;&quot;&gt;User Domain&lt;/font&gt;&lt;/b&gt;" style="text;html=1;align=center;verticalAlign=middle;whiteSpace=wrap;rounded=0;" vertex="1" parent="WIyWlLk6GJQsqaUBKTNV-1">
          <mxGeometry x="915" y="50" width="120" height="30" as="geometry" />
        </mxCell>
        <mxCell id="9Zp95_j8wEqHx6sy2hP5-70" value="&lt;&lt;enumeration&gt;&gt;&#xa;UserType" style="swimlane;fontStyle=1;align=center;verticalAlign=top;childLayout=stackLayout;horizontal=1;startSize=60;horizontalStack=0;resizeParent=1;resizeParentMax=0;resizeLast=0;collapsible=0;marginBottom=0;" vertex="1" parent="WIyWlLk6GJQsqaUBKTNV-1">
          <mxGeometry x="1160" y="232.43000000000006" width="131" height="160" as="geometry" />
        </mxCell>
        <mxCell id="9Zp95_j8wEqHx6sy2hP5-71" value="ADMIN" style="text;strokeColor=none;fillColor=none;align=left;verticalAlign=top;spacingLeft=4;spacingRight=4;overflow=hidden;rotatable=0;points=[[0,0.5],[1,0.5]];portConstraint=eastwest;" vertex="1" parent="9Zp95_j8wEqHx6sy2hP5-70">
          <mxGeometry y="60" width="131" height="40" as="geometry" />
        </mxCell>
        <mxCell id="9Zp95_j8wEqHx6sy2hP5-72" value="BROKER" style="text;strokeColor=none;fillColor=none;align=left;verticalAlign=top;spacingLeft=4;spacingRight=4;overflow=hidden;rotatable=0;points=[[0,0.5],[1,0.5]];portConstraint=eastwest;" vertex="1" parent="9Zp95_j8wEqHx6sy2hP5-70">
          <mxGeometry y="100" width="131" height="40" as="geometry" />
        </mxCell>
        <mxCell id="9Zp95_j8wEqHx6sy2hP5-73" style="line;strokeWidth=1;fillColor=none;align=left;verticalAlign=middle;spacingTop=-1;spacingLeft=3;spacingRight=3;rotatable=0;labelPosition=right;points=[];portConstraint=eastwest;strokeColor=inherit;" vertex="1" parent="9Zp95_j8wEqHx6sy2hP5-70">
          <mxGeometry y="140" width="131" height="20" as="geometry" />
        </mxCell>
        <mxCell id="9Zp95_j8wEqHx6sy2hP5-74" value="has" style="curved=1;startArrow=none;endArrow=none;entryX=0.5;entryY=0;rounded=0;exitX=0.99;exitY=0.192;exitDx=0;exitDy=0;exitPerimeter=0;" edge="1" parent="WIyWlLk6GJQsqaUBKTNV-1" target="9Zp95_j8wEqHx6sy2hP5-70" source="9Zp95_j8wEqHx6sy2hP5-64">
          <mxGeometry relative="1" as="geometry">
            <Array as="points">
              <mxPoint x="1226" y="184.43000000000006" />
            </Array>
            <mxPoint x="1244" y="140" as="sourcePoint" />
          </mxGeometry>
        </mxCell>
        <mxCell id="9Zp95_j8wEqHx6sy2hP5-75" value="*" style="edgeLabel;resizable=0;labelBackgroundColor=none;fontSize=12;align=right;verticalAlign=top;" vertex="1" parent="9Zp95_j8wEqHx6sy2hP5-74">
          <mxGeometry x="-1" relative="1" as="geometry" />
        </mxCell>
        <mxCell id="9Zp95_j8wEqHx6sy2hP5-76" value="1" style="edgeLabel;resizable=0;labelBackgroundColor=none;fontSize=12;align=left;verticalAlign=bottom;" vertex="1" parent="9Zp95_j8wEqHx6sy2hP5-74">
          <mxGeometry x="1" relative="1" as="geometry">
            <mxPoint x="-26" y="-7" as="offset" />
          </mxGeometry>
        </mxCell>
      </root>
    </mxGraphModel>
  </diagram>
</mxfile>
